<?xml version="1.0" encoding="UTF-8"?>
<!DOCTYPE svg PUBLIC "-//W3C//DTD SVG 1.1//EN" "http://www.w3.org/Graphics/SVG/1.1/DTD/svg11.dtd">
<!-- Creator: CorelDRAW -->
<svg xmlns="http://www.w3.org/2000/svg" xml:space="preserve" width="240px" height="240px" version="1.1" style="shape-rendering:geometricPrecision; text-rendering:geometricPrecision; image-rendering:optimizeQuality; fill-rule:evenodd; clip-rule:evenodd"
viewBox="0 0 88.43 88.43"
 xmlns:xlink="http://www.w3.org/1999/xlink"
 xmlns:xodm="http://www.corel.com/coreldraw/odm/2003">
 <defs>
  <style type="text/css">
   <![CDATA[
    .fil1 {fill:#186CE9}
    .fil0 {fill:#F2B705}
   ]]>
  </style>
 </defs>
 <g id="Camada_x0020_1">
  <metadata id="CorelCorpID_0Corel-Layer"/>
  <rect class="fil0" width="88.43" height="88.43" rx="26.23" ry="26.23"/>
  <path class="fil1" d="M77.12 18.16l-12.85 0c-8.05,0 -15.27,3.69 -20.06,9.47 -4.78,-5.78 -12.01,-9.47 -20.05,-9.47l-12.85 0c0,8.69 0,17.38 0,26.07l12.6 0 0 -13.65 0.44 0c7.5,0 13.63,6.14 13.63,13.63l0 0c0,7.5 -6.13,13.64 -13.63,13.64l-13.04 0 0 12.42 12.85 0c8.04,0 15.27,-3.69 20.05,-9.47 4.79,5.78 12.01,9.47 20.06,9.47l12.85 0 0 -12.42 -13.04 0c-7.5,0 -13.64,-6.14 -13.64,-13.64l0 0c0,-7.49 6.14,-13.63 13.64,-13.63l13.04 0 0 -12.42z"/>
 </g>
</svg>
